<svg width="180" height="36" viewBox="0 0 180 36" fill="none" xmlns="http://www.w3.org/2000/svg" role="img" aria-label="Braintest">
  <!-- ícone cérebro -->
  <g transform="translate(0,2)">
    <rect x="0" y="0" width="32" height="32" rx="8" fill="#FFE5DF"/>
    <path d="M16 6c-2.9 0-5.2 2.3-5.2 5.2v9.1c0 2 1.6 3.6 3.6 3.6h.3c.7 0 1.3.6 1.3 1.3v.2c0 .4.3.7.7.7h1.4c.4 0 .7-.3.7-.7v-.2c0-.7.6-1.3 1.3-1.3h.3c2 0 3.6-1.6 3.6-3.6V11.2C24.8 8.3 22.5 6 19.6 6c-.9 0-1.8.2-2.6.7-.8-.5-1.7-.7-2.6-.7z" fill="#FF8A73"/>
    <path d="M12.8 10.8c-.9 0-1.7.8-1.7 1.7v6.3c0 .9.8 1.7 1.7 1.7M19.2 10.8c.9 0 1.7.8 1.7 1.7v6.3c0 .9-.8 1.7-1.7 1.7" stroke="#1D3557" stroke-width="1.4" stroke-linecap="round"/>
    <path d="M14.4 12.5h1.6M14.4 15.4h2.8M14.4 18.3h1.6" stroke="#1D3557" stroke-width="1.4" stroke-linecap="round"/>
  </g>

  <!-- texto Braintest -->
  <g transform="translate(40,6)">
    <text x="0" y="18" font-family="Poppins, Arial, sans-serif" font-weight="700" font-size="18" fill="#1D3557">Brain</text>
    <text x="54" y="18" font-family="Poppins, Arial, sans-serif" font-weight="700" font-size="18" fill="#FF8A73">test</text>
  </g>
</svg>
